<mxfile host="app.diagrams.net" modified="2023-09-29T09:12:18.775Z" agent="Mozilla/5.0 (Windows NT 10.0; Win64; x64) AppleWebKit/537.36 (KHTML, like Gecko) Chrome/117.0.0.0 Safari/537.36 Edg/117.0.2045.43" etag="N7YH592TX4ZhbALb_lK0" version="21.8.2" type="device">
  <diagram name="Page-1" id="13e1069c-82ec-6db2-03f1-153e76fe0fe0">
    <mxGraphModel dx="832" dy="481" grid="1" gridSize="10" guides="1" tooltips="1" connect="1" arrows="1" fold="1" page="1" pageScale="1" pageWidth="1100" pageHeight="850" background="none" math="0" shadow="0">
      <root>
        <mxCell id="0" />
        <mxCell id="1" parent="0" />
        <mxCell id="7baba1c4bc27f4b0-2" value="&lt;u&gt;staff&lt;/u&gt;&lt;br&gt;&amp;lt;&amp;lt;Actor&amp;gt;&amp;gt;" style="shape=umlLifeline;perimeter=lifelinePerimeter;whiteSpace=wrap;html=1;container=1;collapsible=0;recursiveResize=0;outlineConnect=0;rounded=1;shadow=0;comic=0;labelBackgroundColor=none;strokeWidth=1;fontFamily=Verdana;fontSize=12;align=center;" parent="1" vertex="1">
          <mxGeometry x="290" y="80" width="100" height="920" as="geometry" />
        </mxCell>
        <mxCell id="7baba1c4bc27f4b0-10" value="" style="html=1;points=[];perimeter=orthogonalPerimeter;rounded=0;shadow=0;comic=0;labelBackgroundColor=none;strokeWidth=1;fontFamily=Verdana;fontSize=12;align=center;" parent="7baba1c4bc27f4b0-2" vertex="1">
          <mxGeometry x="45" y="100" width="10" height="230" as="geometry" />
        </mxCell>
        <mxCell id="X1nKzKbw-sHYYYvWQxL8-35" value="" style="html=1;verticalAlign=bottom;endArrow=block;labelBackgroundColor=none;fontFamily=Verdana;fontSize=12;edgeStyle=elbowEdgeStyle;elbow=vertical;" edge="1" parent="7baba1c4bc27f4b0-2">
          <mxGeometry relative="1" as="geometry">
            <mxPoint x="55" y="150" as="sourcePoint" />
            <Array as="points">
              <mxPoint x="60" y="150" />
            </Array>
            <mxPoint x="260" y="150" as="targetPoint" />
          </mxGeometry>
        </mxCell>
        <mxCell id="X1nKzKbw-sHYYYvWQxL8-19" value="" style="html=1;verticalAlign=bottom;endArrow=block;labelBackgroundColor=none;fontFamily=Verdana;fontSize=12;edgeStyle=elbowEdgeStyle;elbow=vertical;" edge="1" parent="7baba1c4bc27f4b0-2">
          <mxGeometry relative="1" as="geometry">
            <mxPoint x="46" y="480" as="sourcePoint" />
            <Array as="points">
              <mxPoint x="51" y="480" />
            </Array>
            <mxPoint x="630" y="480" as="targetPoint" />
          </mxGeometry>
        </mxCell>
        <mxCell id="X1nKzKbw-sHYYYvWQxL8-69" value="" style="html=1;points=[];perimeter=orthogonalPerimeter;rounded=0;shadow=0;comic=0;labelBackgroundColor=none;strokeWidth=1;fontFamily=Verdana;fontSize=12;align=center;" vertex="1" parent="7baba1c4bc27f4b0-2">
          <mxGeometry x="45" y="450" width="10" height="80" as="geometry" />
        </mxCell>
        <mxCell id="X1nKzKbw-sHYYYvWQxL8-81" value="" style="html=1;verticalAlign=bottom;endArrow=block;labelBackgroundColor=none;fontFamily=Verdana;fontSize=12;edgeStyle=elbowEdgeStyle;elbow=vertical;dashed=1;" edge="1" parent="7baba1c4bc27f4b0-2">
          <mxGeometry relative="1" as="geometry">
            <mxPoint x="265" y="600.5" as="sourcePoint" />
            <mxPoint x="55" y="600" as="targetPoint" />
          </mxGeometry>
        </mxCell>
        <mxCell id="X1nKzKbw-sHYYYvWQxL8-51" value="" style="html=1;points=[];perimeter=orthogonalPerimeter;rounded=0;shadow=0;comic=0;labelBackgroundColor=none;strokeWidth=1;fontFamily=Verdana;fontSize=12;align=center;" vertex="1" parent="7baba1c4bc27f4b0-2">
          <mxGeometry x="45" y="760" width="10" height="100" as="geometry" />
        </mxCell>
        <mxCell id="X1nKzKbw-sHYYYvWQxL8-86" value="" style="edgeStyle=orthogonalEdgeStyle;rounded=0;orthogonalLoop=1;jettySize=auto;html=1;" edge="1" parent="7baba1c4bc27f4b0-2">
          <mxGeometry relative="1" as="geometry">
            <mxPoint x="45" y="830" as="sourcePoint" />
            <mxPoint x="-130" y="830" as="targetPoint" />
            <Array as="points" />
          </mxGeometry>
        </mxCell>
        <mxCell id="X1nKzKbw-sHYYYvWQxL8-70" value="" style="html=1;verticalAlign=bottom;endArrow=block;labelBackgroundColor=none;fontFamily=Verdana;fontSize=12;edgeStyle=elbowEdgeStyle;elbow=vertical;dashed=1;" edge="1" parent="7baba1c4bc27f4b0-2">
          <mxGeometry relative="1" as="geometry">
            <mxPoint x="635" y="510.5" as="sourcePoint" />
            <mxPoint x="55" y="511" as="targetPoint" />
            <Array as="points" />
          </mxGeometry>
        </mxCell>
        <mxCell id="7baba1c4bc27f4b0-3" value="&lt;u&gt;Inventory&lt;br&gt;system&lt;br&gt;&lt;/u&gt;" style="shape=umlLifeline;perimeter=lifelinePerimeter;whiteSpace=wrap;html=1;container=1;collapsible=0;recursiveResize=0;outlineConnect=0;rounded=1;shadow=0;comic=0;labelBackgroundColor=none;strokeWidth=1;fontFamily=Verdana;fontSize=12;align=center;" parent="1" vertex="1">
          <mxGeometry x="480" y="80" width="160" height="920" as="geometry" />
        </mxCell>
        <mxCell id="X1nKzKbw-sHYYYvWQxL8-37" value="" style="html=1;points=[];perimeter=orthogonalPerimeter;rounded=0;shadow=0;comic=0;labelBackgroundColor=none;strokeWidth=1;fontFamily=Verdana;fontSize=12;align=center;" vertex="1" parent="7baba1c4bc27f4b0-3">
          <mxGeometry x="75" y="100" width="10" height="230" as="geometry" />
        </mxCell>
        <mxCell id="X1nKzKbw-sHYYYvWQxL8-44" value="" style="html=1;verticalAlign=bottom;endArrow=block;labelBackgroundColor=none;fontFamily=Verdana;fontSize=12;edgeStyle=elbowEdgeStyle;elbow=vertical;" edge="1" parent="7baba1c4bc27f4b0-3" target="7baba1c4bc27f4b0-3">
          <mxGeometry relative="1" as="geometry">
            <mxPoint x="-134.5" y="230" as="sourcePoint" />
            <Array as="points">
              <mxPoint x="-129.5" y="230" />
            </Array>
            <mxPoint x="45" y="230" as="targetPoint" />
          </mxGeometry>
        </mxCell>
        <mxCell id="7baba1c4bc27f4b0-26" value="" style="html=1;verticalAlign=bottom;endArrow=block;labelBackgroundColor=none;fontFamily=Verdana;fontSize=12;" parent="7baba1c4bc27f4b0-3" edge="1">
          <mxGeometry relative="1" as="geometry">
            <mxPoint x="-140" y="370" as="sourcePoint" />
            <mxPoint x="270" y="370" as="targetPoint" />
          </mxGeometry>
        </mxCell>
        <mxCell id="X1nKzKbw-sHYYYvWQxL8-56" value="&amp;nbsp; &amp;nbsp; &amp;nbsp; successful payment transaction" style="text;html=1;align=center;verticalAlign=middle;resizable=0;points=[];autosize=1;strokeColor=none;fillColor=none;" vertex="1" parent="7baba1c4bc27f4b0-3">
          <mxGeometry x="-50" y="380" width="210" height="30" as="geometry" />
        </mxCell>
        <mxCell id="X1nKzKbw-sHYYYvWQxL8-24" value="" style="html=1;points=[];perimeter=orthogonalPerimeter;rounded=0;shadow=0;comic=0;labelBackgroundColor=none;strokeWidth=1;fontFamily=Verdana;fontSize=12;align=center;" vertex="1" parent="7baba1c4bc27f4b0-3">
          <mxGeometry x="-145" y="550" width="10" height="150" as="geometry" />
        </mxCell>
        <mxCell id="X1nKzKbw-sHYYYvWQxL8-79" value="" style="html=1;points=[];perimeter=orthogonalPerimeter;rounded=0;shadow=0;comic=0;labelBackgroundColor=none;strokeWidth=1;fontFamily=Verdana;fontSize=12;align=center;" vertex="1" parent="7baba1c4bc27f4b0-3">
          <mxGeometry x="75" y="550" width="10" height="60" as="geometry" />
        </mxCell>
        <mxCell id="7baba1c4bc27f4b0-8" value="&lt;u&gt;Direct customer&lt;/u&gt;&lt;br&gt;&amp;lt;&amp;lt;Actor&amp;gt;&amp;gt;" style="shape=umlLifeline;perimeter=lifelinePerimeter;whiteSpace=wrap;html=1;container=1;collapsible=0;recursiveResize=0;outlineConnect=0;rounded=1;shadow=0;comic=0;labelBackgroundColor=none;strokeWidth=1;fontFamily=Verdana;fontSize=12;align=center;" parent="1" vertex="1">
          <mxGeometry x="100" y="80" width="100" height="910" as="geometry" />
        </mxCell>
        <mxCell id="7baba1c4bc27f4b0-9" value="" style="html=1;points=[];perimeter=orthogonalPerimeter;rounded=0;shadow=0;comic=0;labelBackgroundColor=none;strokeWidth=1;fontFamily=Verdana;fontSize=12;align=center;" parent="7baba1c4bc27f4b0-8" vertex="1">
          <mxGeometry x="45" y="100" width="10" height="810" as="geometry" />
        </mxCell>
        <mxCell id="7baba1c4bc27f4b0-11" value="" style="html=1;verticalAlign=bottom;endArrow=block;labelBackgroundColor=none;fontFamily=Verdana;fontSize=12;edgeStyle=elbowEdgeStyle;elbow=vertical;" parent="7baba1c4bc27f4b0-8" target="7baba1c4bc27f4b0-10" edge="1">
          <mxGeometry relative="1" as="geometry">
            <mxPoint x="55" y="130" as="sourcePoint" />
            <mxPoint x="185" y="130" as="targetPoint" />
          </mxGeometry>
        </mxCell>
        <mxCell id="X1nKzKbw-sHYYYvWQxL8-93" value="wait for pickup" style="html=1;align=left;spacingLeft=2;endArrow=block;rounded=0;edgeStyle=orthogonalEdgeStyle;curved=0;rounded=0;" edge="1" parent="7baba1c4bc27f4b0-8">
          <mxGeometry relative="1" as="geometry">
            <mxPoint x="55" y="710" as="sourcePoint" />
            <Array as="points">
              <mxPoint x="85" y="740" />
            </Array>
            <mxPoint x="50" y="740" as="targetPoint" />
          </mxGeometry>
        </mxCell>
        <mxCell id="X1nKzKbw-sHYYYvWQxL8-1" value="place order request" style="text;html=1;align=center;verticalAlign=middle;resizable=0;points=[];autosize=1;strokeColor=none;fillColor=none;" vertex="1" parent="1">
          <mxGeometry x="175" y="190" width="130" height="30" as="geometry" />
        </mxCell>
        <mxCell id="X1nKzKbw-sHYYYvWQxL8-12" value="" style="html=1;verticalAlign=bottom;endArrow=block;labelBackgroundColor=none;fontFamily=Verdana;fontSize=12;edgeStyle=elbowEdgeStyle;elbow=vertical;dashed=1;" edge="1" parent="1" source="X1nKzKbw-sHYYYvWQxL8-47">
          <mxGeometry relative="1" as="geometry">
            <mxPoint x="920" y="484.5" as="sourcePoint" />
            <mxPoint x="340" y="484.5" as="targetPoint" />
          </mxGeometry>
        </mxCell>
        <mxCell id="X1nKzKbw-sHYYYvWQxL8-38" value="check product availability" style="text;html=1;align=center;verticalAlign=middle;resizable=0;points=[];autosize=1;strokeColor=none;fillColor=none;" vertex="1" parent="1">
          <mxGeometry x="370" y="210" width="160" height="30" as="geometry" />
        </mxCell>
        <mxCell id="X1nKzKbw-sHYYYvWQxL8-42" value="&amp;nbsp; &amp;nbsp; &amp;nbsp; &amp;nbsp; &amp;nbsp; &amp;nbsp; &amp;nbsp; &amp;nbsp; &amp;nbsp; &amp;nbsp; send availability status" style="text;html=1;align=center;verticalAlign=middle;resizable=0;points=[];autosize=1;strokeColor=none;fillColor=none;" vertex="1" parent="1">
          <mxGeometry x="310" y="250" width="210" height="30" as="geometry" />
        </mxCell>
        <mxCell id="X1nKzKbw-sHYYYvWQxL8-5" value="" style="html=1;verticalAlign=bottom;endArrow=block;labelBackgroundColor=none;fontFamily=Verdana;fontSize=12;edgeStyle=elbowEdgeStyle;elbow=vertical;" edge="1" parent="1">
          <mxGeometry relative="1" as="geometry">
            <mxPoint x="155.5" y="350" as="sourcePoint" />
            <Array as="points">
              <mxPoint x="160.5" y="350" />
            </Array>
            <mxPoint x="335" y="350" as="targetPoint" />
          </mxGeometry>
        </mxCell>
        <mxCell id="X1nKzKbw-sHYYYvWQxL8-46" value="confirm order" style="text;html=1;align=center;verticalAlign=middle;resizable=0;points=[];autosize=1;strokeColor=none;fillColor=none;" vertex="1" parent="1">
          <mxGeometry x="195" y="330" width="90" height="30" as="geometry" />
        </mxCell>
        <mxCell id="X1nKzKbw-sHYYYvWQxL8-47" value="&lt;u&gt;Payment&amp;nbsp;&lt;br&gt;service&lt;br&gt;&lt;/u&gt;" style="shape=umlLifeline;perimeter=lifelinePerimeter;whiteSpace=wrap;html=1;container=1;collapsible=0;recursiveResize=0;outlineConnect=0;rounded=1;shadow=0;comic=0;labelBackgroundColor=none;strokeWidth=1;fontFamily=Verdana;fontSize=12;align=center;" vertex="1" parent="1">
          <mxGeometry x="710" y="80" width="100" height="920" as="geometry" />
        </mxCell>
        <mxCell id="X1nKzKbw-sHYYYvWQxL8-52" value="" style="html=1;points=[];perimeter=orthogonalPerimeter;rounded=0;shadow=0;comic=0;labelBackgroundColor=none;strokeWidth=1;fontFamily=Verdana;fontSize=12;align=center;" vertex="1" parent="X1nKzKbw-sHYYYvWQxL8-47">
          <mxGeometry x="45" y="340" width="10" height="110" as="geometry" />
        </mxCell>
        <mxCell id="X1nKzKbw-sHYYYvWQxL8-55" value="Initiate payment process" style="text;html=1;align=center;verticalAlign=middle;resizable=0;points=[];autosize=1;strokeColor=none;fillColor=none;" vertex="1" parent="1">
          <mxGeometry x="475" y="425" width="150" height="30" as="geometry" />
        </mxCell>
        <mxCell id="X1nKzKbw-sHYYYvWQxL8-58" value="&lt;u&gt;Database&lt;br&gt;&lt;/u&gt;" style="shape=umlLifeline;perimeter=lifelinePerimeter;whiteSpace=wrap;html=1;container=1;collapsible=0;recursiveResize=0;outlineConnect=0;rounded=1;shadow=0;comic=0;labelBackgroundColor=none;strokeWidth=1;fontFamily=Verdana;fontSize=12;align=center;" vertex="1" parent="1">
          <mxGeometry x="880" y="80" width="100" height="920" as="geometry" />
        </mxCell>
        <mxCell id="X1nKzKbw-sHYYYvWQxL8-62" value="" style="html=1;points=[];perimeter=orthogonalPerimeter;rounded=0;shadow=0;comic=0;labelBackgroundColor=none;strokeWidth=1;fontFamily=Verdana;fontSize=12;align=center;" vertex="1" parent="X1nKzKbw-sHYYYvWQxL8-58">
          <mxGeometry x="45" y="440" width="10" height="110" as="geometry" />
        </mxCell>
        <mxCell id="X1nKzKbw-sHYYYvWQxL8-63" value="record order details" style="text;html=1;align=center;verticalAlign=middle;resizable=0;points=[];autosize=1;strokeColor=none;fillColor=none;" vertex="1" parent="1">
          <mxGeometry x="520" y="538" width="130" height="30" as="geometry" />
        </mxCell>
        <mxCell id="X1nKzKbw-sHYYYvWQxL8-65" value="successfully record order details" style="text;html=1;align=center;verticalAlign=middle;resizable=0;points=[];autosize=1;strokeColor=none;fillColor=none;" vertex="1" parent="1">
          <mxGeometry x="490" y="570" width="190" height="30" as="geometry" />
        </mxCell>
        <mxCell id="X1nKzKbw-sHYYYvWQxL8-41" value="" style="html=1;verticalAlign=bottom;endArrow=block;labelBackgroundColor=none;fontFamily=Verdana;fontSize=12;edgeStyle=elbowEdgeStyle;elbow=vertical;exitX=0.5;exitY=0.696;exitDx=0;exitDy=0;exitPerimeter=0;dashed=1;" edge="1" parent="1" target="7baba1c4bc27f4b0-2">
          <mxGeometry relative="1" as="geometry">
            <mxPoint x="550" y="270.03999999999996" as="sourcePoint" />
            <Array as="points">
              <mxPoint x="530" y="270" />
            </Array>
            <mxPoint x="370" y="270" as="targetPoint" />
          </mxGeometry>
        </mxCell>
        <mxCell id="X1nKzKbw-sHYYYvWQxL8-45" value="confirm product availability" style="text;html=1;align=center;verticalAlign=middle;resizable=0;points=[];autosize=1;strokeColor=none;fillColor=none;" vertex="1" parent="1">
          <mxGeometry x="375" y="290" width="160" height="30" as="geometry" />
        </mxCell>
        <mxCell id="X1nKzKbw-sHYYYvWQxL8-66" value="" style="html=1;verticalAlign=bottom;endArrow=block;labelBackgroundColor=none;fontFamily=Verdana;fontSize=12;" edge="1" parent="1">
          <mxGeometry relative="1" as="geometry">
            <mxPoint x="345" y="650" as="sourcePoint" />
            <mxPoint x="559.5" y="650" as="targetPoint" />
          </mxGeometry>
        </mxCell>
        <mxCell id="X1nKzKbw-sHYYYvWQxL8-80" value="reserve ordered products" style="text;html=1;align=center;verticalAlign=middle;resizable=0;points=[];autosize=1;strokeColor=none;fillColor=none;" vertex="1" parent="1">
          <mxGeometry x="370" y="630" width="160" height="30" as="geometry" />
        </mxCell>
        <mxCell id="X1nKzKbw-sHYYYvWQxL8-82" value="&amp;nbsp; &amp;nbsp; &amp;nbsp; reservation confirmation" style="text;html=1;align=center;verticalAlign=middle;resizable=0;points=[];autosize=1;strokeColor=none;fillColor=none;" vertex="1" parent="1">
          <mxGeometry x="355" y="658" width="170" height="30" as="geometry" />
        </mxCell>
        <mxCell id="X1nKzKbw-sHYYYvWQxL8-88" value="" style="edgeStyle=orthogonalEdgeStyle;rounded=0;orthogonalLoop=1;jettySize=auto;html=1;" edge="1" parent="1">
          <mxGeometry relative="1" as="geometry">
            <mxPoint x="335" y="730" as="sourcePoint" />
            <mxPoint x="160" y="730" as="targetPoint" />
            <Array as="points" />
          </mxGeometry>
        </mxCell>
        <mxCell id="X1nKzKbw-sHYYYvWQxL8-89" value="provide order confirmation" style="text;html=1;align=center;verticalAlign=middle;resizable=0;points=[];autosize=1;strokeColor=none;fillColor=none;" vertex="1" parent="1">
          <mxGeometry x="170" y="708" width="160" height="30" as="geometry" />
        </mxCell>
        <mxCell id="X1nKzKbw-sHYYYvWQxL8-87" value="" style="edgeStyle=orthogonalEdgeStyle;rounded=0;orthogonalLoop=1;jettySize=auto;html=1;" edge="1" parent="1" target="7baba1c4bc27f4b0-2">
          <mxGeometry relative="1" as="geometry">
            <mxPoint x="155" y="879.5" as="sourcePoint" />
            <mxPoint x="304" y="870" as="targetPoint" />
            <Array as="points">
              <mxPoint x="280" y="880" />
              <mxPoint x="280" y="880" />
            </Array>
          </mxGeometry>
        </mxCell>
        <mxCell id="X1nKzKbw-sHYYYvWQxL8-96" value="pickup order" style="text;html=1;align=center;verticalAlign=middle;resizable=0;points=[];autosize=1;strokeColor=none;fillColor=none;" vertex="1" parent="1">
          <mxGeometry x="205" y="858" width="90" height="30" as="geometry" />
        </mxCell>
        <mxCell id="X1nKzKbw-sHYYYvWQxL8-98" value="hand over order" style="text;html=1;align=center;verticalAlign=middle;resizable=0;points=[];autosize=1;strokeColor=none;fillColor=none;" vertex="1" parent="1">
          <mxGeometry x="185" y="888" width="110" height="30" as="geometry" />
        </mxCell>
      </root>
    </mxGraphModel>
  </diagram>
</mxfile>
